<svg width="35" height="27" viewBox="0 0 35 27" fill="none" xmlns="http://www.w3.org/2000/svg">
<path d="M31.0714 2.99997C31.3556 2.99997 31.6281 3.11286 31.829 3.31379C32.03 3.51472 32.1429 3.78724 32.1429 4.0714V23.3571C32.1429 23.6413 32.03 23.9138 31.829 24.1147C31.6281 24.3157 31.3556 24.4285 31.0714 24.4285H3.21429C2.93012 24.4285 2.6576 24.3157 2.45667 24.1147C2.25574 23.9138 2.14286 23.6413 2.14286 23.3571V4.0714C2.14286 3.78724 2.25574 3.51472 2.45667 3.31379C2.6576 3.11286 2.93012 2.99997 3.21429 2.99997H31.0714ZM3.21429 0.857117C2.3618 0.857117 1.54424 1.19576 0.941442 1.79856C0.338647 2.40135 0 3.21892 0 4.0714L0 23.3571C0 24.2096 0.338647 25.0272 0.941442 25.63C1.54424 26.2328 2.3618 26.5714 3.21429 26.5714H31.0714C31.9239 26.5714 32.7415 26.2328 33.3443 25.63C33.9471 25.0272 34.2857 24.2096 34.2857 23.3571V4.0714C34.2857 3.21892 33.9471 2.40135 33.3443 1.79856C32.7415 1.19576 31.9239 0.857117 31.0714 0.857117H3.21429Z" fill="#A93636"/>
<path d="M15.0001 8.35711C15.0001 8.07295 15.113 7.80043 15.3139 7.5995C15.5148 7.39857 15.7874 7.28568 16.0715 7.28568H26.7858C27.07 7.28568 27.3425 7.39857 27.5434 7.5995C27.7444 7.80043 27.8572 8.07295 27.8572 8.35711C27.8572 8.64127 27.7444 8.9138 27.5434 9.11473C27.3425 9.31566 27.07 9.42854 26.7858 9.42854H16.0715C15.7874 9.42854 15.5148 9.31566 15.3139 9.11473C15.113 8.9138 15.0001 8.64127 15.0001 8.35711ZM11.7944 6.52711C11.8942 6.62664 11.9733 6.74487 12.0273 6.87504C12.0814 7.00521 12.1092 7.14475 12.1092 7.28568C12.1092 7.42661 12.0814 7.56616 12.0273 7.69633C11.9733 7.8265 11.8942 7.94473 11.7944 8.04426L8.5801 11.2585C8.48057 11.3583 8.36234 11.4375 8.23217 11.4915C8.102 11.5455 7.96246 11.5733 7.82153 11.5733C7.6806 11.5733 7.54105 11.5455 7.41088 11.4915C7.28071 11.4375 7.16248 11.3583 7.06295 11.2585L5.99153 10.1871C5.89191 10.0875 5.81289 9.96923 5.75898 9.83908C5.70506 9.70892 5.67731 9.56942 5.67731 9.42854C5.67731 9.14402 5.79034 8.87116 5.99153 8.66997C6.19271 8.46878 6.46558 8.35576 6.7501 8.35576C7.03462 8.35576 7.30748 8.46878 7.50867 8.66997L7.82153 8.98497L10.2772 6.52711C10.3768 6.42733 10.495 6.34817 10.6252 6.29416C10.7553 6.24014 10.8949 6.21234 11.0358 6.21234C11.1767 6.21234 11.3163 6.24014 11.4465 6.29416C11.5766 6.34817 11.6949 6.42733 11.7944 6.52711ZM15.0001 16.9285C15.0001 16.6444 15.113 16.3719 15.3139 16.1709C15.5148 15.97 15.7874 15.8571 16.0715 15.8571H26.7858C27.07 15.8571 27.3425 15.97 27.5434 16.1709C27.7444 16.3719 27.8572 16.6444 27.8572 16.9285C27.8572 17.2127 27.7444 17.4852 27.5434 17.6862C27.3425 17.8871 27.07 18 26.7858 18H16.0715C15.7874 18 15.5148 17.8871 15.3139 17.6862C15.113 17.4852 15.0001 17.2127 15.0001 16.9285ZM11.7944 15.0985C11.8942 15.1981 11.9733 15.3163 12.0273 15.4465C12.0814 15.5766 12.1092 15.7162 12.1092 15.8571C12.1092 15.998 12.0814 16.1376 12.0273 16.2678C11.9733 16.3979 11.8942 16.5162 11.7944 16.6157L8.5801 19.83C8.48057 19.9297 8.36234 20.0089 8.23217 20.0629C8.102 20.1169 7.96246 20.1447 7.82153 20.1447C7.6806 20.1447 7.54105 20.1169 7.41088 20.0629C7.28071 20.0089 7.16248 19.9297 7.06295 19.83L5.99153 18.7585C5.89191 18.6589 5.81289 18.5407 5.75898 18.4105C5.70506 18.2804 5.67731 18.1409 5.67731 18C5.67731 17.8591 5.70506 17.7196 5.75898 17.5894C5.81289 17.4593 5.89191 17.341 5.99153 17.2414C6.09114 17.1418 6.20941 17.0628 6.33956 17.0088C6.46972 16.9549 6.60922 16.9272 6.7501 16.9272C6.89098 16.9272 7.03048 16.9549 7.16063 17.0088C7.29079 17.0628 7.40905 17.1418 7.50867 17.2414L7.82153 17.5564L10.2772 15.0985C10.3768 14.9988 10.495 14.9196 10.6252 14.8656C10.7553 14.8116 10.8949 14.7838 11.0358 14.7838C11.1767 14.7838 11.3163 14.8116 11.4465 14.8656C11.5766 14.9196 11.6949 14.9988 11.7944 15.0985Z" fill="#A93636"/>
</svg>
